<?xml version="1.0" encoding="UTF-8"?>
<svg id="Layer_2" data-name="Layer 2" xmlns="http://www.w3.org/2000/svg" viewBox="0 0 70.59 40.86">
  <defs>
    <style>
      .cls-1 {
        fill: #231f20;
      }
    </style>
  </defs>
  <g id="Layer_1-2" data-name="Layer 1">
    <g>
      <path class="cls-1" d="M0,40.86V0h10.86v40.86H0ZM6.96,26.1v-10.56h20.82v10.56H6.96Z"/>
      <path class="cls-1" d="M20.49,40.86L27.51,0h9.78l8.7,26.52h-.9L53.79,0h9.72l7.08,40.86h-10.68l-2.46-17.34c-.28-2.16-.56-4.33-.84-6.51-.28-2.18-.56-4.37-.84-6.57h3.12c-.56,2.12-1.09,4.26-1.59,6.42-.5,2.16-1.09,4.3-1.77,6.42l-5.7,17.28h-8.58l-5.7-17.28c-.72-2.12-1.33-4.26-1.83-6.42-.5-2.16-1.03-4.3-1.59-6.42h3.18c-.28,2.2-.55,4.39-.81,6.57-.26,2.18-.55,4.35-.87,6.51l-2.46,17.34h-10.68Z"/>
    </g>
  </g>
</svg>